#!OML:ASF H:\Terrain\Patient Classification 1\Animal1\Tuesday\Animal1.ASF
:FULLY-SPECIFIED
:DEGREES
3762
root 13.4509 15.7629 -13.967 5.95213 -16.0399 23.0749
lowerback 20.187 2.88279 15.3785
upperback 7.35089 7.22724 17.8958
thorax -3.64058 3.36905 9.79768
lowerneck -6.21954 8.02033 9.05156
upperneck -1.21932 9.64177 11.9557
head 0.471168 4.7269 2.51321
rclavicle -6.36111e-014 -9.38264e-014
rhumerus -11.8423 18.4083 -11.9521
rradius 40.4748
rwrist -35.3962
rhand -25.5162 15.5452
rfingers 7.12502
rthumb 1.01302 -14.4321
lclavicle -6.36111e-014 -9.38264e-014
lhumerus -29.2425 -34.8094 7.58719
lradius 38.4006
lwrist 13.0695
lhand 52.0739 31.3935
lfingers 7.12502
lthumb 71.2462 22.6776
rfemur -42.361 8.75481 -15.6592
rtibia 51.2841
rfoot -13.8915 -21.4612
rtoes -15.1208
lfemur -21.5323 -5.55973 -36.6145
ltibia 17.7503
lfoot -9.84671 5.11433
ltoes -18.5242
3763
root 13.4597 15.7753 -13.974 6.24609 -15.957 22.6077
lowerback 20.1832 2.86249 15.8294
upperback 7.24977 7.30541 17.948
thorax -3.70358 3.39922 9.59996
lowerneck -6.40774 7.96534 9.08901
upperneck -1.06446 9.5174 12.0189
head 0.555015 4.68425 2.53977
rclavicle 1.90833e-014 -1.43125e-014
rhumerus -11.4104 16.6777 -12.2561
rradius 39.736
rwrist -34.5636
rhand -26.0018 15.6128
rfingers 7.12502
rthumb 0.544013 -14.3663
lclavicle 1.90833e-014 -1.43125e-014
lhumerus -29.0467 -34.6575 7.46648
lradius 38.0717
lwrist 12.7177
lhand 51.7409 31.4837
lfingers 7.12502
lthumb 71.0474 23.5498
rfemur -42.5621 8.80703 -15.223
rtibia 51.2506
rfoot -14.0626 -21.5015
rtoes -13.4345
lfemur -21.3346 -5.61293 -36.1449
ltibia 16.8211
lfoot -9.24383 4.9871
ltoes -19.1121
3764
root 13.4719 15.7785 -13.9648 6.05501 -15.8653 22.9255
lowerback 20.1494 2.78761 15.5598
upperback 7.27328 7.14844 17.8809
thorax -3.67704 3.32875 9.7015
lowerneck -6.40111 7.99006 9.17015
upperneck -1.08326 9.54622 11.9281
head 0.555175 4.6955 2.49696
rclavicle -9.54166e-015 -7.95139e-014
rhumerus -10.8404 14.9139 -12.4896
rradius 39.1624
rwrist -33.699
rhand -26.2986 15.8971
rfingers 7.12502
rthumb 0.25739 -14.0825
lclavicle -9.54166e-015 -7.95139e-014
lhumerus -29.0803 -34.6441 7.53103
lradius 37.6669
lwrist 12.5388
lhand 51.5006 31.5097
lfingers 7.12502
lthumb 70.9016 24.1299
rfemur -42.3711 8.71227 -15.5848
rtibia 51.2672
rfoot -14.2217 -21.4385
rtoes -12.6106
lfemur -20.7781 -5.71126 -36.5392
ltibia 16.077
lfoot -8.92754 4.97058
ltoes -19.3401
3765
root 13.4834 15.7714 -13.9559 5.84216 -15.7726 23.2321
lowerback 20.1748 2.71713 15.2016
upperback 7.28027 7.0079 17.8913
thorax -3.72436 3.26422 9.94136
lowerneck -6.36071 7.9988 8.96358
upperneck -1.08884 9.58121 11.9886
head 0.533461 4.71208 2.54787
rclavicle -3.18055e-015 4.13472e-014
rhumerus -10.2081 13.3805 -12.6306
rradius 38.7448
rwrist -33.1186
rhand -26.7785 16.6868
rfingers 7.12502
rthumb -0.206184 -13.2929
lclavicle -3.18055e-015 4.13472e-014
lhumerus -29.3743 -34.772 7.76292
lradius 37.448
lwrist 12.5049
lhand 51.6158 31.4927
lfingers 7.12502
lthumb 70.9717 23.8484
rfemur -42.1055 8.63511 -15.9409
rtibia 51.249
rfoot -14.3438 -21.3521
rtoes -12.8131
lfemur -20.5541 -5.83139 -36.9094
ltibia 16.0589
lfoot -8.9587 5.06901
ltoes -19.44
3766
root 13.4916 15.7644 -13.9537 5.81752 -15.717 23.236
lowerback 20.2285 2.72034 15.0936
upperback 7.25198 7.02198 17.9602
thorax -3.8114 3.26984 10.0797
lowerneck -6.41916 7.93765 8.78669
upperneck -1.01003 9.49855 12.0089
head 0.562133 4.68177 2.58592
rclavicle 5.40694e-014 1.90833e-014
rhumerus -9.65902 11.5386 -12.8558
rradius 38.1379
rwrist -32.3562
rhand -26.9147 17.9347
rfingers 7.12502
rthumb -0.337672 -12.0448
lclavicle 5.40694e-014 1.90833e-014
lhumerus -29.3738 -34.4385 7.82401
lradius 37.2657
lwrist 12.076
lhand 51.8182 31.4911
lfingers 7.12502
lthumb 71.0938 23.3772
rfemur -41.9702 8.66919 -15.9952
rtibia 51.1959
rfoot -14.3269 -21.4107
rtoes -13.8873
lfemur -20.5649 -5.88451 -36.9446
ltibia 16.1492
lfoot -9.01046 5.05685
ltoes -19.5452
3767
root 13.497 15.762 -13.9564 5.99577 -15.7166 22.9595
lowerback 20.1419 2.786 15.2899
upperback 7.26965 7.11185 17.9891
thorax -3.72829 3.31369 9.99042
lowerneck -6.64259 7.86781 8.94658
upperneck -0.963712 9.35758 11.8977
head 0.631177 4.62349 2.53338
rclavicle -8.5875e-014 -1.00187e-013
rhumerus -9.2612 9.22137 -13.3147
rradius 37.479
rwrist -31.2576
rhand -26.8165 18.7915
rfingers 7.12502
rthumb -0.242812 -11.1881
lclavicle -8.5875e-014 -1.00187e-013
lhumerus -29.1373 -34.1224 7.61874
lradius 37.2377
lwrist 11.8594
lhand 51.7811 31.567
lfingers 7.12502
lthumb 71.0716 23.5395
rfemur -42.0178 8.78162 -15.7602
rtibia 51.0827
rfoot -13.9852 -21.7138
rtoes -15.1665
lfemur -20.867 -5.91731 -36.6557
ltibia 16.4182
lfoot -9.11974 5.03081
ltoes -19.3677
3768
root 13.5051 15.763 -13.9564 6.1829 -15.7799 22.5752
lowerback 20.0603 2.81521 15.655
upperback 7.27239 7.1833 17.981
thorax -3.63375 3.34657 9.76975
lowerneck -6.69773 7.84786 8.97784
upperneck -0.998223 9.3249 11.998
head 0.626737 4.60707 2.56236
rclavicle 7.63333e-014 1.1609e-013
rhumerus -9.0574 7.09088 -13.8745
rradius 37.2095
rwrist -30.2341
rhand -26.94 18.6761
rfingers 7.12502
rthumb -0.362124 -11.3034
lclavicle 7.63333e-014 1.1609e-013
lhumerus -29.0353 -33.88 7.33824
lradius 37.3077
lwrist 11.6635
lhand 51.8816 31.8231
lfingers 7.12502
lthumb 71.1318 23.5607
rfemur -42.0893 8.89795 -15.4056
rtibia 50.9365
rfoot -13.6212 -21.8971
rtoes -15.9478
lfemur -21.1264 -5.90558 -36.2685
ltibia 16.6324
lfoot -9.20692 5.06043
ltoes -18.8002
3769
root 13.5173 15.768 -13.9403 6.07746 -15.9062 22.6326
lowerback 20.0774 2.78997 15.754
upperback 7.267 7.16207 17.8413
thorax -3.61357 3.33531 9.54806
lowerneck -6.57548 7.82138 8.95554
upperneck -1.0631 9.31723 12.1651
head 0.575952 4.59516 2.61257
rclavicle -2.8625e-014 -6.67916e-014
rhumerus -9.01543 5.5703 -14.4136
rradius 37.1209
rwrist -29.639
rhand -27.6188 18.6706
rfingers 7.12502
rthumb -1.01775 -11.3067
lclavicle -2.8625e-014 -6.67916e-014
lhumerus -28.98 -33.6644 7.09187
lradius 37.2194
lwrist 11.3476
lhand 52.2486 31.9665
lfingers 7.12502
lthumb 71.3491 22.8333
rfemur -41.9318 8.89166 -15.495
rtibia 50.8168
rfoot -13.5084 -21.7558
rtoes -16.2638
lfemur -20.9699 -5.80907 -36.4141
ltibia 16.6542
lfoot -9.44605 5.11298
ltoes -18.3594
3770
root 13.5284 15.7768 -13.9254 5.97415 -15.9581 22.8197
lowerback 20.0261 2.74789 15.6685
upperback 7.29045 7.06658 17.7304
thorax -3.54934 3.29251 9.48254
lowerneck -6.55727 7.83145 8.98562
upperneck -1.05095 9.32781 12.1934
head 0.576508 4.60018 2.61696
rclavicle 1.27222e-014 -1.59028e-014
rhumerus -8.73429 4.36817 -14.8669
rradius 36.8589
rwrist -29.4739
rhand -28.1082 19.4206
rfingers 7.12502
rthumb -1.49041 -10.554
lclavicle 1.27222e-014 -1.59028e-014
lhumerus -29.0863 -33.745 7.09205
lradius 37.0382
lwrist 11.3202
lhand 52.2324 31.7884
lfingers 7.12502
lthumb 71.3396 22.6941
rfemur -41.8035 8.81023 -15.7199
rtibia 50.7248
rfoot -13.6426 -21.4686
rtoes -14.9047
lfemur -20.7573 -5.7605 -36.6887
ltibia 16.5284
lfoot -9.54584 5.12693
ltoes -18.6735
3771
root 13.538 15.7863 -13.9227 6.00797 -15.9467 22.8823
lowerback 19.8673 2.80504 15.5327
upperback 7.29744 7.07493 17.7507
thorax -3.47879 3.30094 9.58427
lowerneck -6.49202 7.80981 9.0826
upperneck -1.05005 9.30231 12.0776
head 0.575969 4.58539 2.55932
rclavicle -6.36111e-015 0
rhumerus -8.41758 2.95009 -15.2378
rradius 36.5467
rwrist -29.1741
rhand -27.839 19.7582
rfingers 7.12502
rthumb -1.23041 -10.218
lclavicle -6.36111e-015 0
lhumerus -28.8945 -33.7096 7.16785
lradius 36.6709
lwrist 11.121
lhand 51.9503 31.8349
lfingers 7.12502
lthumb 71.1729 23.4111
rfemur -41.8521 8.7201 -15.8132
rtibia 50.6435
rfoot -13.7927 -21.2767
rtoes -13.2422
lfemur -20.7369 -5.77169 -36.8018
ltibia 16.3879
lfoot -9.29769 5.14498
ltoes -19.6194
